# xmcd
# Copyright (C) 1995-1998 Ti Kan
#
# Track frame offsets:
#       150
#       25925
#       48512
#       59927
#       78302
#       103050
#       123043
#       151349
#       172804
#       190194
#       202191
#       219644
#       236734
#
# Disc length: 3507 seconds
#
# Revision: 2
# Processed by: cddbd v1.4PL0 Copyright (c) Steve Scherf et al.
# Submitted via: CD-Transfer v1.0
#
DISCID=b60db10d
DTITLE=Claudia Bettinaglio - Sometimes...
DYEAR=2003
DGENRE=
TTITLE0=Turn Around
TTITLE1=Holding Your Breath
TTITLE2=Dogs I Like
TTITLE3=God Hired The Devil
TTITLE4=Loversland
TTITLE5=You Will Last
TTITLE6=Relationshit
TTITLE7=Trophy
TTITLE8=Feels Good
TTITLE9=Prettyhead
TTITLE10=Sisterlove
TTITLE11=Sometimes It's Best
TTITLE12=Jersey Girl
EXTD=
EXTT0=
EXTT1=
EXTT2=
EXTT3=
EXTT4=
EXTT5=
EXTT6=
EXTT7=
EXTT8=
EXTT9=
EXTT10=
EXTT11=
EXTT12=
PLAYORDER=
